<svg width="113" height="28" viewBox="0 0 113 28" fill="none" xmlns="http://www.w3.org/2000/svg">
<path d="M20.231 0.770564L20.581 0.740564C20.201 0.520564 19.761 0.390564 19.291 0.380564L3.25099 0.000564251C1.76099 -0.0294357 0.530988 1.14056 0.500988 2.62056L0.000987698 23.7806C-0.0390123 25.2606 1.14099 26.5006 2.62099 26.5306L10.641 26.7206L18.661 26.9106C18.861 26.9106 19.061 26.9006 19.241 26.8606C19.051 26.4806 18.921 26.0606 18.881 25.6106L17.061 4.53056C16.901 2.63056 18.311 0.940564 20.211 0.780564L20.231 0.770564Z" fill="#FCE301"/>
<path d="M41.391 23.7004L39.571 2.6204C39.441 1.1404 38.141 0.0504052 36.661 0.170405L20.681 1.55041C19.201 1.68041 18.111 2.98041 18.241 4.46041L20.061 25.5404C20.191 27.0204 21.491 28.1104 22.971 27.9904L38.951 26.6104C40.431 26.4804 41.521 25.1804 41.391 23.7004Z" fill="#FCE301"/>
<path d="M47.1511 20.2605C47.0211 20.2605 46.9011 20.2105 46.8011 20.1105C46.7011 20.0105 46.6411 19.8905 46.6411 19.7505V7.05053C46.6411 6.91053 46.6911 6.79053 46.8011 6.69053C46.9011 6.59053 47.0211 6.54053 47.1511 6.54053H53.4011C54.5911 6.54053 55.5611 6.70053 56.3211 7.01053C57.0811 7.32053 57.6411 7.77053 58.0011 8.36053C58.3611 8.95053 58.5511 9.67053 58.5511 10.5405C58.5511 10.9805 58.4611 11.3805 58.2911 11.7305C58.1111 12.0805 57.9011 12.3605 57.6511 12.5905C57.4011 12.8205 57.1711 12.9805 56.9511 13.0905C57.4611 13.3105 57.9011 13.6905 58.2811 14.2205C58.6611 14.7505 58.8511 15.3505 58.8511 16.0305C58.8511 16.9405 58.6411 17.7205 58.2311 18.3405C57.8211 18.9705 57.2211 19.4405 56.4511 19.7705C55.6711 20.1005 54.7211 20.2605 53.6011 20.2605H47.1611H47.1511ZM50.8511 11.8505H52.9511C53.3711 11.8505 53.6711 11.7305 53.8711 11.5005C54.0711 11.2705 54.1611 10.9905 54.1611 10.6805C54.1611 10.3705 54.0611 10.0905 53.8711 9.86053C53.6811 9.63053 53.3711 9.51053 52.9511 9.51053H50.8511V11.8605V11.8505ZM50.8511 17.3005H53.1411C53.5811 17.3005 53.9111 17.1705 54.1211 16.9005C54.3311 16.6305 54.4311 16.3305 54.4311 16.0105C54.4311 15.6905 54.3211 15.3705 54.1011 15.1205C53.8811 14.8705 53.5611 14.7405 53.1411 14.7405H50.8511V17.3105V17.3005Z" fill="white"/>
<path d="M61.2312 20.2605C61.1012 20.2605 60.9812 20.2105 60.8812 20.1105C60.7812 20.0105 60.7212 19.8905 60.7212 19.7505V7.05053C60.7212 6.91053 60.7712 6.79053 60.8812 6.69053C60.9812 6.59053 61.1012 6.54053 61.2312 6.54053H64.4812C64.6212 6.54053 64.7512 6.59053 64.8512 6.69053C64.9512 6.79053 65.0112 6.91053 65.0112 7.05053V16.7705H70.6712C70.8112 16.7705 70.9412 16.8205 71.0412 16.9205C71.1412 17.0205 71.2012 17.1405 71.2012 17.2805V19.7505C71.2012 19.8905 71.1512 20.0105 71.0412 20.1105C70.9412 20.2105 70.8112 20.2605 70.6712 20.2605H61.2312Z" fill="white"/>
<path d="M71.9808 20.2605C71.8608 20.2605 71.7608 20.2205 71.6808 20.1305C71.5908 20.0405 71.5508 19.9405 71.5508 19.8305C71.5508 19.7805 71.5608 19.7305 71.5908 19.6905L76.0508 7.15053C76.0908 7.01053 76.1808 6.87053 76.3108 6.74053C76.4508 6.61053 76.6308 6.54053 76.8708 6.54053H80.4508C80.7008 6.54053 80.8908 6.61053 81.0208 6.74053C81.1508 6.87053 81.2408 7.01053 81.2708 7.15053L85.7508 19.6905C85.7508 19.6905 85.7708 19.7805 85.7708 19.8305C85.7708 19.9505 85.7308 20.0505 85.6408 20.1305C85.5508 20.2205 85.4508 20.2605 85.3408 20.2605H82.3208C82.1008 20.2605 81.9408 20.2105 81.8308 20.1005C81.7308 20.0005 81.6508 19.9005 81.6108 19.8105L81.0008 18.1605H76.2808L75.6708 19.8105C75.6308 19.9005 75.5608 20.0005 75.4608 20.1005C75.3608 20.2005 75.2008 20.2605 74.9608 20.2605H71.9408H71.9808ZM77.2108 14.8505H80.1308L78.6608 10.4405L77.2108 14.8505Z" fill="white"/>
<path d="M92.6808 20.4606C91.4408 20.4606 90.3608 20.2706 89.4308 19.8806C88.5008 19.4906 87.7808 18.9106 87.2508 18.1306C86.7208 17.3506 86.4308 16.3506 86.3808 15.1506C86.3708 14.6106 86.3608 14.0406 86.3608 13.4306C86.3608 12.8206 86.3608 12.2306 86.3808 11.6706C86.4308 10.4906 86.7308 9.5106 87.2708 8.7206C87.8108 7.9306 88.5508 7.3406 89.4808 6.9506C90.4108 6.5606 91.4808 6.3606 92.6808 6.3606C93.5408 6.3606 94.3508 6.4606 95.1008 6.6606C95.8508 6.8606 96.5208 7.1706 97.1108 7.5806C97.7008 7.9906 98.1608 8.5006 98.5008 9.1106C98.8408 9.7206 99.0208 10.4306 99.0308 11.2406C99.0308 11.3606 98.9908 11.4606 98.9008 11.5306C98.8108 11.6106 98.7108 11.6506 98.6008 11.6506H95.2908C95.0908 11.6506 94.9508 11.6106 94.8608 11.5306C94.7708 11.4506 94.6908 11.3106 94.6208 11.1206C94.4508 10.5606 94.2008 10.1806 93.8808 9.9806C93.5508 9.7806 93.1608 9.6906 92.6908 9.6906C92.1208 9.6906 91.6608 9.8406 91.3208 10.1506C90.9808 10.4606 90.8008 11.0006 90.7708 11.7706C90.7308 12.8406 90.7308 13.9406 90.7708 15.0606C90.8008 15.8306 90.9808 16.3706 91.3208 16.6806C91.6608 16.9906 92.1208 17.1406 92.6908 17.1406C93.1608 17.1406 93.5608 17.0406 93.8908 16.8306C94.2208 16.6206 94.4708 16.2506 94.6208 15.7106C94.6708 15.5006 94.7508 15.3606 94.8508 15.2906C94.9508 15.2206 95.0908 15.1806 95.2908 15.1806H98.6008C98.7208 15.1806 98.8208 15.2206 98.9008 15.3006C98.9908 15.3806 99.0308 15.4806 99.0308 15.5906C99.0208 16.4006 98.8408 17.1106 98.5008 17.7206C98.1608 18.3306 97.7008 18.8406 97.1108 19.2506C96.5208 19.6606 95.8508 19.9706 95.1008 20.1706C94.3508 20.3706 93.5408 20.4706 92.6808 20.4706V20.4606Z" fill="white"/>
<path d="M101.331 20.2605C101.201 20.2605 101.081 20.2105 100.981 20.1105C100.881 20.0105 100.821 19.8905 100.821 19.7505V7.05053C100.821 6.91053 100.871 6.79053 100.981 6.69053C101.091 6.59053 101.201 6.54053 101.331 6.54053H104.441C104.581 6.54053 104.701 6.59053 104.801 6.69053C104.901 6.79053 104.951 6.91053 104.951 7.05053V11.1705L107.871 6.96053C107.931 6.87053 108.031 6.78053 108.141 6.69053C108.261 6.60053 108.421 6.55053 108.631 6.55053H112.211C112.331 6.55053 112.431 6.59053 112.511 6.68053C112.601 6.77053 112.641 6.87053 112.641 6.98053C112.641 7.06053 112.611 7.13053 112.561 7.20053L108.451 13.1205L112.911 19.6305C112.961 19.6805 112.991 19.7505 112.991 19.8505C112.991 19.9705 112.951 20.0705 112.861 20.1505C112.781 20.2405 112.671 20.2805 112.561 20.2805H108.861C108.611 20.2805 108.431 20.2205 108.301 20.1005C108.181 19.9805 108.101 19.9005 108.081 19.8505L104.951 15.3005V19.7705C104.951 19.9105 104.901 20.0305 104.801 20.1305C104.701 20.2305 104.581 20.2805 104.441 20.2805H101.331V20.2605Z" fill="white"/>
<path d="M41.8608 1.80041V1.67041H42.7408V1.80041H42.3708V2.85041H42.2308V1.80041H41.8608Z" fill="#FCE301"/>
<path d="M42.9609 1.67041H43.1309L43.5309 2.65041H43.5409L43.9409 1.67041H44.1109V2.85041H43.9809V1.95041H43.9709L43.6009 2.85041H43.4709L43.1009 1.95041H43.0909V2.85041H42.9609V1.67041Z" fill="#FCE301"/>
<path d="M15.9609 21.3806L6.46092 21.1606L6.53092 18.0006L8.91092 18.0606L9.12092 9.24061L6.72092 10.3006L5.69092 7.63061C6.03092 7.48061 6.35092 7.33061 6.67092 7.18061C6.99092 7.03061 7.32092 6.85061 7.65092 6.64061C7.98092 6.43061 8.33092 6.17061 8.70092 5.86061C9.07092 5.54061 9.48092 5.13061 9.92092 4.62061L14.1509 4.72061L13.8309 18.1806L16.0409 18.2306L15.9709 21.3906L15.9609 21.3806Z" fill="black"/>
<path d="M36.7312 13.2104C36.6212 11.9004 36.3812 10.7204 36.0112 9.68042C35.6412 8.64042 35.1512 7.76042 34.5312 7.05042C33.9112 6.34042 33.1612 5.82042 32.2612 5.48042C31.3612 5.14042 30.3412 5.03042 29.1912 5.13042C28.2112 5.22042 27.3312 5.50042 26.5512 5.99042C25.7612 6.48042 25.1112 7.12042 24.5812 7.91042C24.0512 8.70042 23.6712 9.64042 23.4412 10.7204C23.2112 11.8004 23.1412 12.9604 23.2512 14.2104C23.3812 15.6604 23.6512 16.9204 24.0912 17.9704C24.5212 19.0204 25.0712 19.8804 25.7312 20.5504C26.3912 21.2204 27.1512 21.6904 28.0112 21.9804C28.8712 22.2604 29.8012 22.3604 30.7912 22.2804C31.8612 22.1904 32.8012 21.9104 33.5912 21.4504C34.3912 20.9904 35.0412 20.3704 35.5412 19.5904C36.0512 18.8104 36.4012 17.8804 36.6012 16.8004C36.8012 15.7304 36.8512 14.5304 36.7312 13.2204V13.2104ZM32.0012 15.6104C31.9612 16.2104 31.8712 16.7304 31.7312 17.1604C31.5912 17.5904 31.4212 17.9404 31.2012 18.1804C30.9812 18.4304 30.7412 18.5704 30.4712 18.5904C30.2312 18.6104 29.9812 18.5204 29.7112 18.3104C29.4412 18.1004 29.1812 17.7904 28.9512 17.3704C28.7112 16.9504 28.5012 16.4404 28.3212 15.8404C28.1312 15.2404 28.0112 14.5504 27.9412 13.8004C27.8812 13.0704 27.8812 12.4204 27.9612 11.8304C28.0412 11.2404 28.1512 10.7404 28.3112 10.3104C28.4612 9.88042 28.6512 9.55042 28.8612 9.32042C29.0712 9.09042 29.2912 8.96042 29.5112 8.94042C29.7912 8.92042 30.0712 9.02042 30.3512 9.24042C30.6212 9.46042 30.8712 9.78042 31.1012 10.1904C31.3312 10.6004 31.5212 11.1004 31.6712 11.6804C31.8212 12.2604 31.9312 12.9104 31.9912 13.6204C32.0512 14.3504 32.0612 15.0104 32.0212 15.6104H32.0012Z" fill="black"/>
</svg>
